<svg id="Слой_1" data-name="Слой 1" xmlns="http://www.w3.org/2000/svg" viewBox="0 0 770.53 511.69"><defs><style>.cls-1,.cls-2{fill:#39c874;}.cls-2{font-size:290.73px;font-family:Bauhaus93, "Bauhaus 93";}</style></defs><title>Безымянный-1</title><path class="cls-1" d="M520.23,305.06V127.29q0-33.06,20-54t52-21q38,0,58.36,34.87,12.47-18.78,26.74-26.83t35.23-8q33.23,0,50.94,21t17.71,60.34V305.06H707.94V144.63q0-11.92-1.9-15.8t-7.68-3.89q-10.83,0-10.84,18.43V305.06H614.17V144.63q0-11.73-2-15.71t-7.77-4q-10.84,0-10.84,19.69V305.06Z" transform="translate(-10.76 -52.31)"/><text class="cls-2" transform="translate(10.24 439) scale(1.09 1)">sugar</text><path class="cls-1" d="M192.5,184.56q-2.52,26-16.35,39.93T139,238.4q-22.95,0-37.94-15.81t-15-40q0-25.11,15.27-41.37t38.75-16.26q36.85,0,50,40.47L216,163.69c.44-6.28-5.73-19.12-5.73-19.12L221.71,141c4.67,4.66,4.82,16.08,4.55,22l12.68-.84c4.7-6-6.94-30.16-6.94-30.16l16-5c7.57,7.57,6.65,27.89,6.17,34.14l14.57-1q-10.47-45.52-35.77-71-36.5-36.86-91.05-36.86-55.47,0-93.32,37.58T10.76,182.57q0,54.75,37.12,91.69t92.23,36.95q54.19,0,87.89-32.52t41.29-92.14Z" transform="translate(-10.76 -52.31)"/><path class="cls-1" d="M458.44,203.35q32.7-25.65,32.7-63,0-36.68-26.38-60.52Q441.09,58.45,398.1,58.46H304v246.6h73.35V124.76h13q26.73,0,26.74,17.53,0,18.12-19.27,19.7c-.22,7,11.55,24,11.55,24l-9.85,7.13c-6.19-4.82-9.91-19.94-11.34-26.91v59.33l35.59,79.49h77Z" transform="translate(-10.76 -52.31)"/></svg>